# xmcd CD database file
#
# Track frame offsets:
#	150
#	16132
#	30037
#	40977
#	50365
#	68387
#	79170
#	88740
#	100227
#	113940
#	127217
#	142607
#
# Disc length: 2062 seconds
#
# Revision: 2
# Processed by: cddbd v1.5PL3 Copyright (c) Steve Scherf et al.
# Submitted via: CDex 1.50beta9
#
DISCID=8c080c0c
DTITLE=Various Artist - Songs of the Louvin Brothers
DYEAR=1997
DGENRE=Bluegrass
TTITLE0=The Dreadful Snakes - Cash on the Barrelhead
TTITLE1=Ricky Skaggs and Peter Rowan - We Live in Two Different Worlds
TTITLE2=Nashville Bluegrass Band - Are You Afraid to Die?
TTITLE3=Whitstein Brothers - Make Him a Soldier
TTITLE4=Longview - Seven Year Blues
TTITLE5=Jim and Jesse and the Virginia Boys - I'm Gonna Love You One More Time
TTITLE6=New England Bluegrass Boys and Joe Val - You're Running Wild
TTITLE7=Here Today - Love and Wealth
TTITLE8=Hazel Dickens and the Johnson Mountain Boys - Here Today and Gone Tomorrow
TTITLE9=Laurie Lewis and Tom Rozum - My Baby Came Back
TTITLE10=Del McCoury and the Dixie Pals - When I Stop Dreaming
TTITLE11=Hugh and Katy Moffat - I Don't Believe You've Met My Baby
EXTD=YEAR: 1997
EXTT0=
EXTT1=
EXTT2=
EXTT3=
EXTT4=
EXTT5=
EXTT6=
EXTT7=
EXTT8=
EXTT9=
EXTT10=
EXTT11=
PLAYORDER=
